<svg width="766" height="766" viewBox="0 0 766 766" fill="none" xmlns="http://www.w3.org/2000/svg">
<circle cx="383" cy="383" r="383" fill="#FF4500"/>
<path d="M399.221 147.705C393.419 149.833 383.523 149.477 383.523 149.477C388.755 170.898 457.217 192.022 457.217 192.022C457.217 192.022 443.257 191.267 434.542 189.363C422.323 186.695 415.326 184.548 404.454 178.284C392.883 171.618 378.29 156.125 378.29 156.125L355.614 137.512C355.614 137.512 339.53 125.312 327.706 120.671C315.088 115.718 307.217 114.288 293.693 114.023C278.662 113.729 270.143 116.239 255.756 120.671C243.921 124.316 236.966 126.324 226.539 133.08C215.566 140.19 209.64 145.331 202.12 156.125C194.806 166.623 192.861 173.998 189.038 186.261C183.727 203.296 182.556 213.603 182.061 231.465C181.695 244.642 183.049 252.02 184.241 265.146C185.644 280.601 185.712 289.441 189.038 304.589C192.556 320.614 196.295 329.16 202.12 344.475C207.344 358.211 211.925 365.229 216.946 379.043C221.276 390.955 223.78 397.679 226.539 410.065C228.672 419.639 228.935 425.19 230.464 434.883C231.829 443.536 232.491 448.405 233.952 457.042C235.39 465.539 237.877 478.757 237.877 478.757L241.802 505.348L244.854 534.598L249.215 566.506L254.011 591.767C254.011 591.767 257.151 606.636 260.552 615.699C263.864 624.522 265.217 630.037 271.018 637.414C275.688 643.354 278.146 648.439 285.408 650.267C291.604 651.826 296.31 650.88 301.542 647.608C306.775 644.335 306.775 644.948 311.136 634.755C315.496 624.562 316.844 618.238 318.985 607.278C321.747 593.138 322.037 570.495 322.037 570.495C322.037 570.495 321.124 548.586 322.037 534.598C322.787 523.117 323.267 516.623 325.526 505.348C327.645 494.772 329.081 488.813 332.939 478.757C336.314 469.959 338.107 464.8 343.405 457.042C348.146 450.098 350.347 444.849 357.795 441.087C365.003 437.447 372.185 438.871 378.29 438.871H393.552C404.889 438.871 410.995 444.633 410.995 444.633C410.995 444.633 420.206 453.338 424.513 460.144C431.59 471.33 431.56 479.658 434.978 492.496C438.66 506.323 440.705 514.172 442.391 528.393C444.714 547.982 441.448 559.208 442.391 578.915C443.081 593.314 442.096 601.69 445.444 615.699C447.528 624.422 447.402 630.355 452.857 637.414C456.75 642.453 459.531 645.559 465.503 647.608C471.15 649.545 474.988 649.1 480.765 647.608C492.553 644.563 500.606 630.324 503.004 625.449C505.402 620.574 509.708 601.552 513.034 586.006C518.667 559.673 523.063 517.757 523.063 517.757C523.063 517.757 526.331 482.547 529.604 460.144C533.063 436.471 532.979 422.548 540.506 399.872C544.773 387.017 554.024 367.963 554.024 367.963L570.594 324.089C570.594 324.089 577.598 300.566 580.188 285.089C583.649 264.399 584.579 252.432 583.676 231.465C582.818 211.536 584.043 199.257 576.263 180.943C569.176 164.259 561.981 155.985 548.791 143.716C536.699 132.469 529.046 125.861 513.47 120.671C501.407 116.652 493.879 117.345 481.201 116.682C471.847 116.194 466.523 115.6 457.217 116.682C446.22 117.961 439.423 118.313 429.745 123.773C422.558 127.828 420.16 132.462 413.611 137.512C408.154 141.719 405.664 145.341 399.221 147.705Z" stroke="white" stroke-width="25"/>
<path d="M279.068 242H267.875V212.909H278.955C281.947 212.909 284.532 213.491 286.71 214.656C288.898 215.812 290.583 217.478 291.767 219.656C292.96 221.825 293.557 224.424 293.557 227.455C293.557 230.485 292.965 233.089 291.781 235.267C290.598 237.436 288.921 239.102 286.753 240.267C284.584 241.422 282.023 242 279.068 242ZM275.773 235.295H278.784C280.223 235.295 281.45 235.063 282.463 234.599C283.486 234.135 284.262 233.335 284.793 232.199C285.332 231.062 285.602 229.481 285.602 227.455C285.602 225.428 285.328 223.847 284.778 222.71C284.239 221.574 283.443 220.774 282.392 220.31C281.35 219.846 280.072 219.614 278.557 219.614H275.773V235.295ZM294.411 242V212.909H315.377V219.273H302.309V224.273H314.297V230.636H302.309V235.636H315.32V242H294.411ZM341.664 212.909V242H335.073L324.562 226.716H324.391V242H316.494V212.909H323.198L333.539 228.136H333.766V212.909H341.664ZM341.805 219.273V212.909H367.089V219.273H358.339V242H350.555V219.273H341.805ZM366.068 212.909H374.875L380.556 224.727H380.784L386.465 212.909H395.272L384.59 232.852V242H376.75V232.852L366.068 212.909ZM396.087 219.273V212.909H421.371V219.273H412.621V242H404.837V219.273H396.087ZM421.544 242V212.909H442.51V219.273H429.441V224.273H441.43V230.636H429.441V235.636H442.453V242H421.544ZM470.786 223.818H462.774C462.717 223.155 462.566 222.554 462.32 222.014C462.083 221.474 461.752 221.01 461.325 220.622C460.909 220.224 460.402 219.921 459.806 219.713C459.209 219.495 458.532 219.386 457.774 219.386C456.449 219.386 455.326 219.708 454.408 220.352C453.499 220.996 452.807 221.92 452.334 223.122C451.87 224.325 451.638 225.769 451.638 227.455C451.638 229.235 451.875 230.726 452.348 231.929C452.831 233.122 453.527 234.022 454.436 234.628C455.345 235.224 456.439 235.523 457.717 235.523C458.447 235.523 459.1 235.433 459.678 235.253C460.255 235.063 460.757 234.794 461.183 234.443C461.61 234.093 461.955 233.671 462.22 233.179C462.495 232.677 462.68 232.114 462.774 231.489L470.786 231.545C470.691 232.777 470.345 234.031 469.749 235.31C469.152 236.579 468.305 237.753 467.206 238.832C466.117 239.902 464.768 240.764 463.158 241.418C461.548 242.071 459.678 242.398 457.547 242.398C454.877 242.398 452.481 241.825 450.36 240.679C448.248 239.533 446.576 237.848 445.345 235.622C444.124 233.397 443.513 230.674 443.513 227.455C443.513 224.216 444.138 221.489 445.388 219.273C446.638 217.047 448.324 215.366 450.445 214.23C452.566 213.084 454.933 212.511 457.547 212.511C459.384 212.511 461.074 212.762 462.618 213.264C464.162 213.766 465.516 214.5 466.681 215.466C467.845 216.422 468.783 217.601 469.493 219.003C470.203 220.404 470.634 222.009 470.786 223.818ZM471.569 242V212.909H479.466V224.273H489.921V212.909H497.819V242H489.921V230.636H479.466V242H471.569Z" fill="white"/>
<path d="M279.068 260H267.875V230.909H278.955C281.947 230.909 284.532 231.491 286.71 232.656C288.898 233.812 290.583 235.478 291.767 237.656C292.96 239.825 293.557 242.424 293.557 245.455C293.557 248.485 292.965 251.089 291.781 253.267C290.598 255.436 288.921 257.102 286.753 258.267C284.584 259.422 282.023 260 279.068 260ZM275.773 253.295H278.784C280.223 253.295 281.45 253.063 282.463 252.599C283.486 252.135 284.262 251.335 284.793 250.199C285.332 249.062 285.602 247.481 285.602 245.455C285.602 243.428 285.328 241.847 284.778 240.71C284.239 239.574 283.443 238.774 282.392 238.31C281.35 237.846 280.072 237.614 278.557 237.614H275.773V253.295ZM294.411 260V230.909H315.377V237.273H302.309V242.273H314.297V248.636H302.309V253.636H315.32V260H294.411ZM341.664 230.909V260H335.073L324.562 244.716H324.391V260H316.494V230.909H323.198L333.539 246.136H333.766V230.909H341.664ZM341.805 237.273V230.909H367.089V237.273H358.339V260H350.555V237.273H341.805ZM366.068 230.909H374.875L380.556 242.727H380.784L386.465 230.909H395.272L384.59 250.852V260H376.75V250.852L366.068 230.909ZM396.087 237.273V230.909H421.371V237.273H412.621V260H404.837V237.273H396.087ZM421.544 260V230.909H442.51V237.273H429.441V242.273H441.43V248.636H429.441V253.636H442.453V260H421.544ZM470.786 241.818H462.774C462.717 241.155 462.566 240.554 462.32 240.014C462.083 239.474 461.752 239.01 461.325 238.622C460.909 238.224 460.402 237.921 459.806 237.713C459.209 237.495 458.532 237.386 457.774 237.386C456.449 237.386 455.326 237.708 454.408 238.352C453.499 238.996 452.807 239.92 452.334 241.122C451.87 242.325 451.638 243.769 451.638 245.455C451.638 247.235 451.875 248.726 452.348 249.929C452.831 251.122 453.527 252.022 454.436 252.628C455.345 253.224 456.439 253.523 457.717 253.523C458.447 253.523 459.1 253.433 459.678 253.253C460.255 253.063 460.757 252.794 461.183 252.443C461.61 252.093 461.955 251.671 462.22 251.179C462.495 250.677 462.68 250.114 462.774 249.489L470.786 249.545C470.691 250.777 470.345 252.031 469.749 253.31C469.152 254.579 468.305 255.753 467.206 256.832C466.117 257.902 464.768 258.764 463.158 259.418C461.548 260.071 459.678 260.398 457.547 260.398C454.877 260.398 452.481 259.825 450.36 258.679C448.248 257.533 446.576 255.848 445.345 253.622C444.124 251.397 443.513 248.674 443.513 245.455C443.513 242.216 444.138 239.489 445.388 237.273C446.638 235.047 448.324 233.366 450.445 232.23C452.566 231.084 454.933 230.511 457.547 230.511C459.384 230.511 461.074 230.762 462.618 231.264C464.162 231.766 465.516 232.5 466.681 233.466C467.845 234.422 468.783 235.601 469.493 237.003C470.203 238.404 470.634 240.009 470.786 241.818ZM471.569 260V230.909H479.466V242.273H489.921V230.909H497.819V260H489.921V248.636H479.466V260H471.569Z" fill="white"/>
<path d="M279.068 278H267.875V248.909H278.955C281.947 248.909 284.532 249.491 286.71 250.656C288.898 251.812 290.583 253.478 291.767 255.656C292.96 257.825 293.557 260.424 293.557 263.455C293.557 266.485 292.965 269.089 291.781 271.267C290.598 273.436 288.921 275.102 286.753 276.267C284.584 277.422 282.023 278 279.068 278ZM275.773 271.295H278.784C280.223 271.295 281.45 271.063 282.463 270.599C283.486 270.135 284.262 269.335 284.793 268.199C285.332 267.062 285.602 265.481 285.602 263.455C285.602 261.428 285.328 259.847 284.778 258.71C284.239 257.574 283.443 256.774 282.392 256.31C281.35 255.846 280.072 255.614 278.557 255.614H275.773V271.295ZM294.411 278V248.909H315.377V255.273H302.309V260.273H314.297V266.636H302.309V271.636H315.32V278H294.411ZM341.664 248.909V278H335.073L324.562 262.716H324.391V278H316.494V248.909H323.198L333.539 264.136H333.766V248.909H341.664ZM341.805 255.273V248.909H367.089V255.273H358.339V278H350.555V255.273H341.805ZM366.068 248.909H374.875L380.556 260.727H380.784L386.465 248.909H395.272L384.59 268.852V278H376.75V268.852L366.068 248.909ZM396.087 255.273V248.909H421.371V255.273H412.621V278H404.837V255.273H396.087ZM421.544 278V248.909H442.51V255.273H429.441V260.273H441.43V266.636H429.441V271.636H442.453V278H421.544ZM470.786 259.818H462.774C462.717 259.155 462.566 258.554 462.32 258.014C462.083 257.474 461.752 257.01 461.325 256.622C460.909 256.224 460.402 255.921 459.806 255.713C459.209 255.495 458.532 255.386 457.774 255.386C456.449 255.386 455.326 255.708 454.408 256.352C453.499 256.996 452.807 257.92 452.334 259.122C451.87 260.325 451.638 261.769 451.638 263.455C451.638 265.235 451.875 266.726 452.348 267.929C452.831 269.122 453.527 270.022 454.436 270.628C455.345 271.224 456.439 271.523 457.717 271.523C458.447 271.523 459.1 271.433 459.678 271.253C460.255 271.063 460.757 270.794 461.183 270.443C461.61 270.093 461.955 269.671 462.22 269.179C462.495 268.677 462.68 268.114 462.774 267.489L470.786 267.545C470.691 268.777 470.345 270.031 469.749 271.31C469.152 272.579 468.305 273.753 467.206 274.832C466.117 275.902 464.768 276.764 463.158 277.418C461.548 278.071 459.678 278.398 457.547 278.398C454.877 278.398 452.481 277.825 450.36 276.679C448.248 275.533 446.576 273.848 445.345 271.622C444.124 269.397 443.513 266.674 443.513 263.455C443.513 260.216 444.138 257.489 445.388 255.273C446.638 253.047 448.324 251.366 450.445 250.23C452.566 249.084 454.933 248.511 457.547 248.511C459.384 248.511 461.074 248.762 462.618 249.264C464.162 249.766 465.516 250.5 466.681 251.466C467.845 252.422 468.783 253.601 469.493 255.003C470.203 256.404 470.634 258.009 470.786 259.818ZM471.569 278V248.909H479.466V260.273H489.921V248.909H497.819V278H489.921V266.636H479.466V278H471.569Z" fill="white"/>
</svg>
